<?xml version="1.0" encoding="utf-8"?><svg xmlns="http://www.w3.org/2000/svg" xmlns:xlink="http://www.w3.org/1999/xlink" width="1494" height="861" preserveAspectRatio="xMidYMid" viewBox="0 0 1494 861" style="z-index:1;margin-right:-2px;display:block;background-repeat-y:initial;background-repeat-x:initial;background-color:transparent;animation-play-state:paused" ><g transform="translate(747,430.5) scale(1,1) translate(-747,-430.5)" style="transform:matrix(1, 0, 0, 1, 0, 0);animation-play-state:paused" ><g transform="translate(1160.1720559712485,110.01090164485868) scale(100)" opacity="0.4" style="transform:matrix(100, 0, 0, 100, 1160.17, 110.011);opacity:0.4;animation-play-state:paused" ><path d="M5.07213 0 C5.07213 1.20267 5.265635241480495 1.651392227630569 4.664300241480495 2.692935 S3.577607772369431 3.7912584312971638 2.5360650000000002 4.392593431297164 S1.2026700000000001 5.385870000000001 3.297894228061878e-16 5.385870000000001 S-1.4945222276305676 4.993928431297165 -2.5360649999999985 4.392593431297165 S-4.0629652414804935 3.7344777723694325 -4.664300241480494 2.692935000000002 S-5.07213 1.2026700000000006 -5.07213 6.211567769359264e-16 S-5.265635241480496 -1.651392227630568 -4.664300241480496 -2.692934999999999 S-3.577607772369433 -3.7912584312971633 -2.536065000000002 -4.392593431297164 S-1.2026700000000008 -5.385870000000001 -9.893682684185633e-16 -5.385870000000001 S1.494522227630565 -4.9939284312971655 2.5360649999999962 -4.392593431297167 S4.062965241480493 -3.734477772369433 4.664300241480493 -2.6929350000000025 S5.07213 -1.2026700000000012 5.07213 -1.2423135538718528e-15" fill="#ff00ff" stroke-width="0" transform="matrix(1,0,0,1,0,0)" style="transform:matrix(1, 0, 0, 1, 0, 0);animation-play-state:paused" ></path></g>
<g transform="translate(1242.8064671654981,45.91308197383046) scale(100)" opacity="0.4" style="transform:matrix(100, 0, 0, 100, 1242.81, 45.9131);opacity:0.4;animation-play-state:paused" ><path d="M6.086555999999999 0 C6.086555999999999 1.4432039999999997 6.318762289776593 1.9816706731566822 5.5971602897765935 3.231521999999999 S4.293129326843317 4.549510117556597 3.0432780000000004 5.271112117556597 S1.4432040000000002 6.463043999999999 3.957473073674253e-16 6.463043999999999 S-1.7934266731566813 5.992714117556597 -3.043277999999998 5.271112117556597 S-4.875558289776592 4.481373326843318 -5.597160289776592 3.231522000000002 S-6.086555999999999 1.4432040000000004 -6.086555999999999 7.453881323231117e-16 S-6.318762289776593 -1.9816706731566809 -5.5971602897765935 -3.231521999999998 S-4.293129326843319 -4.549510117556595 -3.043278000000002 -5.271112117556596 S-1.4432040000000008 -6.463043999999999 -1.1872419221022756e-15 -6.463043999999999 S1.7934266731566781 -5.9927141175565986 3.0432779999999955 -5.2711121175566 S4.87555828977659 -4.481373326843318 5.597160289776591 -3.2315220000000022 S6.086555999999999 -1.4432040000000013 6.086555999999999 -1.4907762646462233e-15" fill="#00c6ff" stroke-width="0" transform="matrix(1,0,0,1,0,0)" style="transform:matrix(1, 0, 0, 1, 0, 0);animation-play-state:paused" ></path></g>
<g transform="translate(1441.1290540316973,-107.92168523663736) scale(100)" opacity="0.4" style="transform:matrix(100, 0, 0, 100, 1441.13, -107.922);opacity:0.4;animation-play-state:paused" ><path d="M8.521178399999998 0 C8.521178399999998 2.0204855999999993 8.84626720568723 2.774338942419355 7.83602440568723 4.524130799999998 S6.010381057580643 6.369314164579235 4.2605892 7.379556964579235 S2.0204855999999998 9.048261599999998 5.540462303143954e-16 9.048261599999998 S-2.5107973424193544 8.389799764579235 -4.260589199999997 7.379556964579236 S-6.825781605687228 6.273922657580645 -7.836024405687228 4.524130800000002 S-8.521178399999998 2.0204856 -8.521178399999998 1.0435433852523562e-15 S-8.84626720568723 -2.774338942419353 -7.836024405687231 -4.5241307999999965 S-6.010381057580646 -6.369314164579234 -4.260589200000003 -7.379556964579234 S-2.020485600000001 -9.048261599999998 -1.6621386909431858e-15 -9.048261599999998 S2.51079734241935 -8.389799764579237 4.260589199999994 -7.379556964579239 S6.825781605687227 -6.273922657580647 7.836024405687227 -4.524130800000004 S8.521178399999998 -2.0204856000000015 8.521178399999998 -2.0870867705047124e-15" fill="#00ffff" stroke-width="0" transform="matrix(1,0,0,1,0,0)" style="transform:matrix(1, 0, 0, 1, 0, 0);animation-play-state:paused" ></path></g></g></svg>